<svg id="Layer_1" enable-background="new 0 0 512 512" height="512" viewBox="0 0 512 512" width="512" xmlns="http://www.w3.org/2000/svg"><g><g><path d="m501.653 452.611c-19.21 26.07-42.02 46.94-42.02 46.94s-13.76.7-36.61 1.58c-37.81 1.45-100.52 3.37-167.02 3.37-106.7 0-203.63-4.95-203.63-4.95s-22.81-20.87-42.02-46.94c-6.41-105.65 0-200.59 0-200.59 19.21-26.07 42.02-46.94 42.02-46.94s96.93-4.95 203.63-4.95c66.5 0 129.21 1.92 167.02 3.37 22.85.88 36.61 1.58 36.61 1.58s22.81 20.87 42.02 46.94c0 0 6.41 94.94 0 200.59z" fill="#c7cde0"/><path d="m501.653 452.611c-19.21 26.07-42.02 46.94-42.02 46.94s-13.76.7-36.61 1.58c5.36-5.48 25.18-26.19 41.63-48.52 6.41-105.65 0-200.59 0-200.59-16.45-22.33-36.27-43.04-41.63-48.52 22.85.88 36.61 1.58 36.61 1.58s22.81 20.87 42.02 46.94c0 0 6.41 94.94 0 200.59z" fill="#b1accc"/><path d="m167.783 203.341-31.04.41-61.7.81c.2-14.49.79-30.28 2.03-46.49 0 0 24.21-3.05 57.65-2.99 9.69.02 20.16.3 31.04.99 1.22 16.13 1.82 32.84 2.02 47.27z" fill="#ff7878"/><path d="m167.783 203.341-31.04.41c-.24-15.03-.85-32.03-2.02-48.67 9.69.02 20.16.3 31.04.99 1.22 16.13 1.82 32.84 2.02 47.27z" fill="#f4536f"/><path d="m203.843 353.751s-9.39.66-24.98 1.21c-5.65.21-12.12.4-19.25.53-.26 14.02-.8 28.96-1.77 44.26-22.73 2.19-41.03 0-41.03 0-.96-15.3-1.51-30.23-1.77-44.23-14.01-.27-28.94-.81-44.23-1.77-2.19-22.73 0-41.03 0-41.03 15.3-.97 30.24-1.51 44.25-1.78.52-26.79 1.75-44.22 1.75-44.22s18.3-2.2 41.03 0c0 0 1.23 17.44 1.75 44.25 7.15.13 13.63.32 19.29.53 15.58.55 24.96 1.22 24.96 1.22s2.19 18.3 0 41.03z" fill="#8389aa"/><path d="m203.843 353.751s-9.39.66-24.98 1.21c1.85-20.82.53-38.11.02-43.46 15.58.55 24.96 1.22 24.96 1.22s2.19 18.3 0 41.03z" fill="#646d91"/><g><g fill="#8389aa"><circle cx="423.558" cy="333.232" r="17.609"/><circle cx="323.797" cy="333.232" r="17.609"/></g><g fill="#ff7878"><circle cx="373.677" cy="283.352" r="17.609"/><circle cx="373.677" cy="383.113" r="17.609"/></g></g></g><g><path d="m509.154 251.515c-.096-1.426-.598-2.794-1.446-3.945-19.426-26.353-42.038-47.153-42.991-48.025-1.286-1.177-2.942-1.87-4.682-1.958-.971-.05-98.349-4.958-204.027-4.958-3.426 0-6.842.005-10.244.015-4.142.012-7.491 3.379-7.479 7.521.012 4.135 3.368 7.479 7.5 7.479h.022c3.388-.01 6.789-.015 10.201-.015 95.385 0 183.986 4.013 200.518 4.804 5.67 5.41 22.757 22.229 37.799 42.277.882 14.674 5.56 100.922-.006 195.219-15.04 20.043-32.124 36.86-37.793 42.269-6.678.321-25.123 1.17-50.824 2.06-4.14.144-7.379 3.616-7.236 7.755.141 4.051 3.468 7.24 7.491 7.24.088 0 .176-.001.265-.004 32.595-1.129 53.606-2.195 53.815-2.206 1.741-.089 3.397-.781 4.682-1.958.953-.873 23.566-21.672 42.991-48.025.858-1.165 1.361-2.552 1.449-3.996 6.364-104.913.06-200.595-.005-201.549z"/><path d="m364.305 495.511c-37.93.988-74.366 1.489-108.297 1.489-95.391 0-183.995-4.014-200.519-4.805-5.665-5.402-22.726-22.189-37.791-42.268-.274-4.639-.53-9.367-.761-14.088-.204-4.138-3.726-7.337-7.859-7.123-4.137.203-7.327 3.721-7.123 7.858.271 5.537.576 11.084.904 16.488.088 1.444.591 2.831 1.449 3.996 19.426 26.353 42.038 47.153 42.991 48.025 1.286 1.177 2.942 1.87 4.682 1.958.971.05 98.349 4.958 204.027 4.958 34.061 0 70.629-.502 108.688-1.494 4.141-.108 7.411-3.552 7.303-7.693-.108-4.139-3.522-7.387-7.694-7.301z"/><path d="m8.028 405.218c.063 0 .126 0 .189-.002 4.141-.103 7.415-3.542 7.312-7.683-1.782-71.912 1.443-130.923 2.161-142.823 15.042-20.047 32.13-36.867 37.799-42.277 13.529-.648 75.379-3.46 149.436-4.451 4.142-.056 7.455-3.458 7.4-7.6-.056-4.142-3.432-7.433-7.601-7.399-10.136.136-20.044.305-29.632.499-.272-10.798-.808-24.248-1.854-37.98-.284-3.729-3.272-6.679-7.005-6.915-13.649-.865-26.611-1.099-38.232-.984-2.236-19.849-6.624-81.676 20.438-113.446 10.979-12.889 25.629-19.154 44.789-19.154 17.736 0 49.938 2.916 66.341 22.447 9.483 11.291 12.522 27.1 9.032 46.988-4.615 26.307-.65 47.154 11.786 61.962 16.704 19.89 44.739 24.064 65.315 24.064 35.667 0 61.096-12.63 75.58-37.54 2.082-3.581.867-8.172-2.714-10.254-3.58-2.081-8.171-.867-10.254 2.714-11.606 19.96-32.672 30.08-62.612 30.08-17.387 0-40.839-3.246-53.828-18.711-9.453-11.255-12.312-27.984-8.498-49.723 4.291-24.456.146-44.384-12.32-59.226-20.315-24.188-57.481-27.8-77.828-27.8-23.49 0-42.401 8.219-56.209 24.428-30.527 35.838-26.642 100.481-24.1 123.524-21.519.79-35.803 2.549-36.791 2.673-3.537.444-6.272 3.317-6.543 6.872-.957 12.563-1.598 25.773-1.91 39.365-9.875.428-15.503.712-15.696.722-1.741.089-3.397.781-4.682 1.958-.953.873-23.565 21.672-42.991 48.025-.848 1.15-1.35 2.519-1.446 3.945-.043.646-4.332 65.45-2.327 146.389.102 4.077 3.439 7.313 7.495 7.313zm76.071-240.353c12.138-1.16 41.056-3.327 74.644-1.676.725 11.103 1.129 21.764 1.352 30.62-31.204.731-58.192 1.673-77.4 2.434.261-10.761.73-21.266 1.404-31.378z"/><path d="m418.584 91.441c-.448 4.118 2.527 7.819 6.645 8.267.276.03.549.044.82.044 3.779 0 7.029-2.848 7.447-6.689 4.173-38.362-7.831-77.061-11.609-88.008-1.352-3.916-5.623-5.993-9.537-4.643-3.916 1.352-5.994 5.621-4.643 9.537 3.521 10.202 14.712 46.229 10.877 81.492z"/><path d="m211.311 354.467c2.246-23.269.075-41.863-.019-42.642-.428-3.571-3.331-6.335-6.918-6.589-.16-.011-14.801-1.033-37.444-1.605-.572-22.642-1.595-37.282-1.606-37.442-.258-3.652-3.116-6.584-6.761-6.936-23.27-2.246-41.864-.075-42.644.019-3.571.428-6.335 3.331-6.589 6.918-.011.16-1.033 14.789-1.606 37.416-12.839.325-25.383.87-37.387 1.627-3.611.228-6.544 3-6.975 6.592-.093.78-2.265 19.373-.019 42.643.354 3.666 3.318 6.533 6.993 6.765 11.994.756 24.531 1.302 37.362 1.626.325 12.831.87 25.367 1.627 37.36.228 3.61 3.001 6.544 6.593 6.975.516.062 8.828 1.033 21.133 1.033 6.295 0 13.636-.254 21.512-1.015 3.666-.354 6.533-3.317 6.765-6.993.756-11.999 1.302-24.545 1.627-37.385 22.629-.573 37.259-1.594 37.419-1.605 3.653-.26 6.586-3.118 6.937-6.762zm-14.421-7.815c-7.345.403-20.558 1.02-37.419 1.344-4.031.078-7.279 3.328-7.354 7.358-.24 12.815-.701 25.377-1.374 37.436-11.232.713-20.904.392-26.829.021-.673-12.06-1.134-24.62-1.374-37.435-.075-4.032-3.326-7.283-7.358-7.358-12.807-.24-25.362-.701-37.415-1.373-.715-11.229-.392-20.902-.021-26.828 12.069-.673 24.639-1.135 37.459-1.375 4.031-.075 7.281-3.323 7.359-7.354.325-16.876.942-30.098 1.345-37.438 5.929-.371 15.607-.693 26.841.021.403 7.342 1.02 20.552 1.344 37.439.077 4.029 3.325 7.277 7.355 7.354 16.89.325 30.124.942 37.467 1.346.371 5.917.693 15.577-.026 26.842z"/><path d="m423.57 358.341c13.846 0 25.11-11.264 25.11-25.109s-11.264-25.109-25.11-25.109-25.111 11.264-25.111 25.109c.001 13.845 11.265 25.109 25.111 25.109zm0-35.218c5.575 0 10.109 4.535 10.109 10.109s-4.535 10.109-10.109 10.109-10.11-4.535-10.11-10.109c0-5.575 4.536-10.109 10.11-10.109z"/><path d="m323.804 308.123c-13.846 0-25.111 11.264-25.111 25.109s11.265 25.109 25.111 25.109 25.11-11.264 25.11-25.109c0-13.846-11.264-25.109-25.11-25.109zm0 35.218c-5.574 0-10.11-4.535-10.11-10.109s4.535-10.109 10.11-10.109 10.109 4.535 10.109 10.109c.001 5.574-4.534 10.109-10.109 10.109z"/><path d="m373.687 258.242c-13.846 0-25.11 11.264-25.11 25.109s11.264 25.109 25.11 25.109 25.111-11.264 25.111-25.109-11.265-25.109-25.111-25.109zm0 35.218c-5.575 0-10.109-4.535-10.109-10.109s4.535-10.109 10.109-10.109 10.11 4.535 10.11 10.109c0 5.575-4.536 10.109-10.11 10.109z"/><path d="m373.687 358.003c-13.846 0-25.11 11.264-25.11 25.109s11.264 25.109 25.11 25.109 25.111-11.264 25.111-25.109-11.265-25.109-25.111-25.109zm0 35.218c-5.575 0-10.109-4.535-10.109-10.109s4.535-10.109 10.109-10.109 10.11 4.535 10.11 10.109-4.536 10.109-10.11 10.109z"/><path d="m210.734 408.828c-4.112-.457-7.825 2.51-8.281 6.627-.457 4.117 2.509 7.824 6.626 8.281 1.264.141 21.516 2.339 48.476 2.339 13.905 0 29.596-.585 45.383-2.339 4.117-.457 7.084-4.165 6.626-8.282s-4.163-7.081-8.283-6.626c-44.69 4.966-90.095.05-90.547 0z"/><path d="m279.25 445.333c-22.851 2.54-46.132.039-46.486 0-4.108-.453-7.825 2.509-8.283 6.626s2.509 7.825 6.626 8.282c.67.075 11.416 1.241 25.72 1.241 7.378 0 15.703-.311 24.079-1.241 4.117-.458 7.084-4.165 6.626-8.282-.457-4.117-4.167-7.084-8.282-6.626z"/><path d="m235.51 246.016c-4.143 0-7.501 3.358-7.501 7.501s3.358 7.501 7.501 7.501 7.501-3.358 7.501-7.501c0-4.142-3.358-7.501-7.501-7.501z"/><path d="m284.013 253.517c0-4.143-3.358-7.501-7.501-7.501s-7.501 3.358-7.501 7.501 3.358 7.501 7.501 7.501c4.143.001 7.501-3.358 7.501-7.501z"/></g></g></svg>