<svg id="Capa_1" enable-background="new 0 0 512 512" height="512" viewBox="0 0 512 512" width="512" xmlns="http://www.w3.org/2000/svg"><g><path d="m361.423 504.5h-108.574l-6.032-285.883h120.638z" fill="#fdf172"/><path d="m361.423 504.5h-108.574l-6.032-285.883h120.638z" fill="#fdf172"/><g><path d="m367.455 218.616h-120.638l.705 33.403h119.228z" fill="#fde800"/></g><path d="m251.401 435.896h111.47l-1.448 68.604h-108.574z" fill="#548eb5"/><path d="m367.615 218.617h-120.958c-16.569 0-30-13.431-30-30v-151.117c0-16.569 13.431-30 30-30h120.957c16.569 0 30 13.431 30 30v151.117c.001 16.568-13.431 30-29.999 30z" fill="#548eb5"/><path d="m297.083 218.618h-50.266c-16.658 0-30.16-13.501-30.16-30.16v-150.797c0-16.658 13.501-30.16 30.16-30.16h50.266c-16.658 0-30.159 13.502-30.159 30.16v150.798c-.001 16.658 13.501 30.159 30.159 30.159z" fill="#447d99"/><path d="m201.578 92.876h211.117v40.213h-211.117z" fill="#eefaff"/><path d="m201.578 92.873h50.266v40.213h-50.266z" fill="#dff1f7"/><path d="m287.03 259.206h40.213v80.425h-40.213z" fill="#447d99"/><path d="m287.03 259.206h40.213v40.213h-40.213z" fill="#f37c7b"/><g><g><path d="m412.698 85.38h-7.58v-47.88c0-20.678-16.822-37.5-37.5-37.5h-120.96c-20.678 0-37.5 16.822-37.5 37.5v47.88h-7.58c-4.142 0-7.5 3.357-7.5 7.5v40.21c0 4.143 3.358 7.5 7.5 7.5h7.58v48.03c0 18.215 13.057 33.432 30.301 36.799l5.89 279.239c.086 4.079 3.418 7.342 7.499 7.342h108.58c4.081 0 7.412-3.263 7.499-7.342l2.26-107.16c.087-4.142-3.199-7.569-7.34-7.656-4.152-.092-7.569 3.199-7.657 7.34l-.658 31.215h-96.787l-4.266-202.276h16.21c4.142 0 7.5-3.357 7.5-7.5s-3.358-7.5-7.5-7.5h-23.87-.16c-12.407 0-22.5-10.094-22.5-22.5v-48.03h165.96v48.03c0 12.406-10.093 22.5-22.5 22.5h-.16-64.09c-4.142 0-7.5 3.357-7.5 7.5s3.358 7.5 7.5 7.5h56.43l-2.919 138.382c-.087 4.142 3.199 7.569 7.34 7.656.054.001.107.002.161.002 4.068 0 7.409-3.255 7.496-7.342l2.94-139.399c17.245-3.367 30.302-18.584 30.302-36.799v-48.03h7.58c4.142 0 7.5-3.357 7.5-7.5v-40.211c-.001-4.143-3.359-7.5-7.501-7.5zm-57.483 358.016-1.131 53.604h-93.893l-1.131-53.604zm49.983-317.806h-196.12v-25.21h109.36c4.142 0 7.5-3.357 7.5-7.5s-3.358-7.5-7.5-7.5h-94.28v-47.88c0-12.406 10.093-22.5 22.5-22.5h120.96c12.407 0 22.5 10.094 22.5 22.5v47.88h-38.99c-4.142 0-7.5 3.357-7.5 7.5s3.358 7.5 7.5 7.5h54.07z"/><path d="m287.03 251.706c-4.142 0-7.5 3.357-7.5 7.5v80.425c0 4.143 3.358 7.5 7.5 7.5h40.212c4.142 0 7.5-3.357 7.5-7.5v-80.425c0-4.143-3.358-7.5-7.5-7.5zm32.712 15v25.213h-25.212v-25.213zm-25.212 65.425v-25.212h25.212v25.212z"/></g><g><path d="m307.136 45.322c-4.164 0-7.54-3.376-7.54-7.54 0-4.164 3.376-7.54 7.54-7.54 4.164 0 7.54 3.376 7.54 7.54 0 4.164-3.376 7.54-7.54 7.54z"/><path d="m334.782 45.322c-4.164 0-7.54-3.376-7.54-7.54 0-4.164 3.376-7.54 7.54-7.54 4.164 0 7.54 3.376 7.54 7.54 0 4.164-3.376 7.54-7.54 7.54z"/><path d="m279.49 45.322c-4.164 0-7.54-3.376-7.54-7.54 0-4.164 3.376-7.54 7.54-7.54 4.164 0 7.54 3.376 7.54 7.54 0 4.164-3.376 7.54-7.54 7.54z"/><path d="m251.844 45.322c-4.164 0-7.54-3.376-7.54-7.54 0-4.164 3.376-7.54 7.54-7.54 4.164 0 7.54 3.376 7.54 7.54-.001 4.164-3.376 7.54-7.54 7.54z"/><path d="m362.428 45.322c-4.164 0-7.54-3.376-7.54-7.54 0-4.164 3.376-7.54 7.54-7.54 4.164 0 7.54 3.376 7.54 7.54 0 4.164-3.375 7.54-7.54 7.54z"/></g><g><path d="m307.136 70.454c-4.164 0-7.54-3.376-7.54-7.54 0-4.164 3.376-7.54 7.54-7.54 4.164 0 7.54 3.376 7.54 7.54 0 4.165-3.376 7.54-7.54 7.54z"/><path d="m334.782 70.454c-4.164 0-7.54-3.376-7.54-7.54 0-4.164 3.376-7.54 7.54-7.54 4.164 0 7.54 3.376 7.54 7.54 0 4.165-3.376 7.54-7.54 7.54z"/><path d="m279.49 70.454c-4.164 0-7.54-3.376-7.54-7.54 0-4.164 3.376-7.54 7.54-7.54 4.164 0 7.54 3.376 7.54 7.54 0 4.165-3.376 7.54-7.54 7.54z"/><path d="m251.844 70.454c-4.164 0-7.54-3.376-7.54-7.54 0-4.164 3.376-7.54 7.54-7.54 4.164 0 7.54 3.376 7.54 7.54-.001 4.165-3.376 7.54-7.54 7.54z"/><path d="m362.428 70.454c-4.164 0-7.54-3.376-7.54-7.54 0-4.164 3.376-7.54 7.54-7.54 4.164 0 7.54 3.376 7.54 7.54 0 4.165-3.375 7.54-7.54 7.54z"/></g><g><path d="m307.136 167.344c-4.164 0-7.54-3.376-7.54-7.54 0-4.164 3.376-7.54 7.54-7.54 4.164 0 7.54 3.376 7.54 7.54 0 4.164-3.376 7.54-7.54 7.54z"/><path d="m334.782 167.344c-4.164 0-7.54-3.376-7.54-7.54 0-4.164 3.376-7.54 7.54-7.54 4.164 0 7.54 3.376 7.54 7.54 0 4.164-3.376 7.54-7.54 7.54z"/><path d="m279.49 167.344c-4.164 0-7.54-3.376-7.54-7.54 0-4.164 3.376-7.54 7.54-7.54 4.164 0 7.54 3.376 7.54 7.54 0 4.164-3.376 7.54-7.54 7.54z"/><path d="m251.844 167.344c-4.164 0-7.54-3.376-7.54-7.54 0-4.164 3.376-7.54 7.54-7.54 4.164 0 7.54 3.376 7.54 7.54-.001 4.164-3.376 7.54-7.54 7.54z"/><path d="m362.428 167.344c-4.164 0-7.54-3.376-7.54-7.54 0-4.164 3.376-7.54 7.54-7.54 4.164 0 7.54 3.376 7.54 7.54 0 4.164-3.375 7.54-7.54 7.54z"/></g><g><path d="m307.136 192.476c-4.164 0-7.54-3.376-7.54-7.54 0-4.164 3.376-7.54 7.54-7.54 4.164 0 7.54 3.376 7.54 7.54 0 4.165-3.376 7.54-7.54 7.54z"/><path d="m334.782 192.476c-4.164 0-7.54-3.376-7.54-7.54 0-4.164 3.376-7.54 7.54-7.54 4.164 0 7.54 3.376 7.54 7.54 0 4.165-3.376 7.54-7.54 7.54z"/><path d="m279.49 192.476c-4.164 0-7.54-3.376-7.54-7.54 0-4.164 3.376-7.54 7.54-7.54 4.164 0 7.54 3.376 7.54 7.54 0 4.165-3.376 7.54-7.54 7.54z"/><path d="m251.844 192.476c-4.164 0-7.54-3.376-7.54-7.54 0-4.164 3.376-7.54 7.54-7.54 4.164 0 7.54 3.376 7.54 7.54-.001 4.165-3.376 7.54-7.54 7.54z"/><path d="m362.428 192.476c-4.164 0-7.54-3.376-7.54-7.54 0-4.164 3.376-7.54 7.54-7.54 4.164 0 7.54 3.376 7.54 7.54 0 4.165-3.375 7.54-7.54 7.54z"/></g></g><g><g><path d="m135.267 407.912c-28.029-28.03-43.465-65.241-43.465-104.78s15.436-76.75 43.465-104.779c2.929-2.928 7.678-2.928 10.606 0 2.929 2.93 2.929 7.678 0 10.607-25.196 25.195-39.072 58.64-39.072 94.172s13.876 68.977 39.072 94.173c2.929 2.93 3.126 7.889 0 10.607-4.125 3.588-9.142 1.464-10.606 0z"/></g><g><path d="m163.686 379.489c-20.423-20.435-31.671-47.552-31.671-76.357s11.248-55.923 31.671-76.357c2.927-2.93 7.676-2.933 10.606-.003 2.93 2.928 2.931 7.677.003 10.606-17.592 17.602-27.28 40.953-27.28 65.754s9.688 48.152 27.28 65.754c2.928 2.93 3.046 7.803-.003 10.606-3.544 3.258-9.142 1.463-10.606-.003z"/></g><g><path d="m192.12 351.063c-12.828-12.816-19.893-29.839-19.893-47.932 0-18.092 7.065-35.114 19.893-47.931 2.929-2.927 7.678-2.926 10.606.005 2.928 2.93 2.925 7.679-.005 10.606-9.992 9.983-15.495 23.236-15.495 37.319s5.503 27.337 15.495 37.32c2.93 2.928 3.211 7.984.005 10.606-4.665 3.819-9.142 1.47-10.606.007z"/></g></g></g></svg>